<?xml version="1.0" standalone="no"?>
<!DOCTYPE svg PUBLIC "-//W3C//DTD SVG 20010904//EN"
 "http://www.w3.org/TR/2001/REC-SVG-20010904/DTD/svg10.dtd">
<svg version="1.0" xmlns="http://www.w3.org/2000/svg"
 width="700.000000pt" height="700.000000pt" viewBox="0 0 700.000000 700.000000"
 preserveAspectRatio="xMidYMid meet">
<metadata>
Created by potrace 1.14, written by Peter Selinger 2001-2017
</metadata>
<g transform="translate(0.000000,700.000000) scale(0.100000,-0.100000)"
fill="#000000" stroke="none">
<path d="M5851 6239 c-125 -32 -250 -99 -412 -221 -160 -121 -203 -161 -772
-728 -314 -312 -555 -545 -565 -544 -25 1 -84 11 -202 34 -58 11 -152 29 -210
40 -58 10 -199 37 -315 60 -228 45 -391 76 -470 90 -27 5 -75 14 -105 20 -30
6 -66 13 -80 16 -14 2 -81 16 -150 29 -69 13 -141 27 -160 30 -19 3 -55 10
-80 15 -25 5 -56 12 -70 14 -109 20 -151 28 -190 36 -25 5 -58 12 -74 14 -16
3 -52 10 -80 15 -43 9 -130 26 -236 46 -14 3 -36 7 -50 10 -14 2 -41 7 -60 10
-19 3 -43 8 -52 11 -9 3 -25 6 -35 8 -10 2 -86 16 -169 31 -86 16 -162 25
-177 21 -39 -9 -323 -296 -331 -333 -9 -40 1 -93 22 -117 15 -17 128 -74 447
-226 50 -23 149 -71 220 -105 72 -35 164 -79 205 -98 137 -64 263 -124 415
-197 83 -40 177 -85 210 -100 33 -15 119 -56 190 -90 135 -65 317 -152 493
-235 56 -27 102 -51 102 -54 0 -3 -213 -219 -474 -480 l-474 -474 -44 12 c-23
6 -52 14 -62 16 -10 2 -76 21 -145 41 -69 20 -133 38 -141 40 -8 2 -64 17
-125 35 -275 77 -465 121 -499 115 -29 -6 -64 -35 -177 -151 -154 -155 -160
-163 -166 -209 -8 -68 17 -99 127 -157 25 -13 47 -26 50 -29 3 -3 19 -12 35
-21 42 -22 157 -84 245 -134 41 -23 101 -56 133 -74 135 -74 178 -98 292 -161
66 -37 152 -84 190 -105 39 -21 75 -43 82 -49 9 -9 80 -134 188 -331 44 -81
97 -177 263 -475 93 -167 180 -312 193 -322 30 -23 65 -30 106 -23 24 4 68 42
182 155 86 86 153 161 157 175 6 24 4 43 -11 120 -7 33 -112 417 -196 718
l-53 188 474 474 c261 261 478 475 481 475 3 0 27 -46 54 -102 66 -139 143
-302 265 -558 239 -500 308 -645 350 -735 21 -44 68 -143 105 -220 37 -77 85
-178 107 -225 23 -47 74 -154 114 -238 41 -85 74 -157 74 -161 0 -13 54 -59
78 -66 13 -3 41 -4 63 0 35 6 60 26 189 156 116 115 150 155 155 182 4 19 -2
78 -14 138 -11 57 -22 118 -25 134 -3 17 -10 55 -16 85 -12 62 -59 302 -66
340 -3 14 -14 70 -24 125 -11 55 -22 114 -25 132 -3 17 -28 147 -55 290 -87
448 -99 507 -104 533 -2 14 -12 66 -21 115 -10 50 -19 101 -21 113 -5 24 -52
267 -100 517 -42 219 -65 338 -74 395 l-10 55 523 525 c577 579 594 596 698
725 192 238 285 425 294 589 12 221 -165 346 -404 285z"/>
</g>
</svg>
